<svg xmlns="http://www.w3.org/2000/svg" viewBox="0 0 1261.33 235.02"><defs><style>.cls-1{fill:#0e0d40;}.cls-2{fill:#f2a30f;}.cls-3{fill:#f20574;}.cls-4{fill:#514bf2;}</style></defs><g id="Calque_2" data-name="Calque 2"><g id="Calque_1-2" data-name="Calque 1"><path class="cls-1" d="M911,181.54a53.9,53.9,0,0,1-18.76-12.73A57.82,57.82,0,0,1,880,149.18,70.14,70.14,0,0,1,875.65,124,70.09,70.09,0,0,1,880,98.91a57.21,57.21,0,0,1,12.19-19.58A55,55,0,0,1,911,66.6,61.86,61.86,0,0,1,935.05,62a62.86,62.86,0,0,1,24.21,4.51,54.79,54.79,0,0,1,18.82,12.73,57.52,57.52,0,0,1,12.24,19.64A70.09,70.09,0,0,1,994.68,124a70.14,70.14,0,0,1-4.36,25.14,57.47,57.47,0,0,1-12.24,19.63,54.51,54.51,0,0,1-18.82,12.73,66.8,66.8,0,0,1-48.31,0ZM947,156.08a24.07,24.07,0,0,0,8.87-6.74,30.34,30.34,0,0,0,5.55-10.77,50.77,50.77,0,0,0,1.9-14.53,51.27,51.27,0,0,0-1.9-14.58,30.67,30.67,0,0,0-5.5-10.82A23.06,23.06,0,0,0,947.08,92a29.91,29.91,0,0,0-12-2.29,29.43,29.43,0,0,0-12,2.29,23.41,23.41,0,0,0-8.82,6.63,29.69,29.69,0,0,0-5.44,10.77A53.34,53.34,0,0,0,907,124a51.26,51.26,0,0,0,1.91,14.58,30.7,30.7,0,0,0,5.49,10.83,23.2,23.2,0,0,0,8.81,6.69,29.41,29.41,0,0,0,11.86,2.28A29,29,0,0,0,947,156.08Z"/><rect class="cls-1" x="261.33" y="26.12" width="29.81" height="156.67"/><path class="cls-1" d="M402.17,74a38.19,38.19,0,0,0-14.74-9,58.83,58.83,0,0,0-19-2.93q-10.56,0-17.84,3.37a33.87,33.87,0,0,0-12,9,38.44,38.44,0,0,0-3.7,5.3V65.29H305.29v117.5h29.59V118.06a40.48,40.48,0,0,1,1.58-11.7,24.41,24.41,0,0,1,4.73-9,21,21,0,0,1,7.89-5.72,28,28,0,0,1,11-2,27.32,27.32,0,0,1,11,2.07,21.52,21.52,0,0,1,7.89,5.76,24.56,24.56,0,0,1,4.74,8.93,40.22,40.22,0,0,1,1.57,11.64v64.73H415V111.42a65.72,65.72,0,0,0-3.32-22A40.56,40.56,0,0,0,402.17,74Z"/><polygon class="cls-1" points="477.4 146.67 449.54 65.29 419.95 65.29 462.6 182.79 492.19 182.79 534.84 65.29 505.25 65.29 477.4 146.67"/><path class="cls-1" d="M633.58,81.17a47.36,47.36,0,0,0-18-14.14q-10.87-5-25.13-5a62.27,62.27,0,0,0-24,4.51,54.6,54.6,0,0,0-18.77,12.68A58.09,58.09,0,0,0,535.49,98.8a69.78,69.78,0,0,0-4.4,25.24,70.68,70.68,0,0,0,4.29,25,57.39,57.39,0,0,0,12.14,19.64,54.85,54.85,0,0,0,18.76,12.78,62.13,62.13,0,0,0,24.21,4.57,67.36,67.36,0,0,0,17.85-2.29,56.27,56.27,0,0,0,15.28-6.63,51.67,51.67,0,0,0,12.19-10.67,56,56,0,0,0,8.65-14.36l-29.6-8.05a23.84,23.84,0,0,1-9.35,11.21q-6,3.58-15,3.59a28.26,28.26,0,0,1-11.86-2.39,23.78,23.78,0,0,1-8.81-6.91,31.9,31.9,0,0,1-5.5-11.05,45.85,45.85,0,0,1-1.31-6.2h82.43a93.93,93.93,0,0,0-1.74-29A57.11,57.11,0,0,0,633.58,81.17ZM569.82,97.49a23.61,23.61,0,0,1,8.81-7,28.26,28.26,0,0,1,11.86-2.39q11.64,0,18.28,6.58,5.87,5.82,6.63,15.61H563.89c.14-.55.28-1.09.43-1.63A32.54,32.54,0,0,1,569.82,97.49Z"/><path class="cls-1" d="M756.86,74a38.19,38.19,0,0,0-14.74-9,58.83,58.83,0,0,0-19-2.93q-10.56,0-17.84,3.37a33.87,33.87,0,0,0-12,9,38.44,38.44,0,0,0-3.7,5.3V65.29H660v117.5h29.59V118.06a40.48,40.48,0,0,1,1.58-11.7,24.41,24.41,0,0,1,4.73-9,21,21,0,0,1,7.89-5.72,28,28,0,0,1,11-2,27.32,27.32,0,0,1,11,2.07,21.52,21.52,0,0,1,7.89,5.76,24.56,24.56,0,0,1,4.74,8.93,40.22,40.22,0,0,1,1.57,11.64v64.73h29.6V111.42a65.72,65.72,0,0,0-3.32-22A40.44,40.44,0,0,0,756.86,74Z"/><path class="cls-1" d="M828.09,26.12H798.5V65.29h-20V92.71h20V148.2a39.42,39.42,0,0,0,2.56,14.63,28.65,28.65,0,0,0,7.4,10.88,32.52,32.52,0,0,0,11.91,6.75,50.74,50.74,0,0,0,16,2.33H862V156.68h-19.8a20.22,20.22,0,0,1-6.26-.87,10.37,10.37,0,0,1-7-7,20.16,20.16,0,0,1-.87-6.25V92.71H862V65.29H828.09Z"/><path class="cls-1" d="M1076.66,62q-10.54,0-17.84,3.37a33.87,33.87,0,0,0-12,9,39.32,39.32,0,0,0-3.7,5.3V65.29h-29.59v117.5h29.59V118.06a40.83,40.83,0,0,1,1.58-11.7,24.41,24.41,0,0,1,4.73-9,21,21,0,0,1,7.89-5.72,28.07,28.07,0,0,1,11-2q4.24,0,7.78.22a39.23,39.23,0,0,1,6.37.87V62.24c-1-.07-2-.12-2.94-.16S1077.68,62,1076.66,62Z"/><rect class="cls-1" x="1097.84" y="22.86" width="29.59" height="159.94"/><polygon class="cls-1" points="1231.73 65.29 1201.04 145.25 1170.15 65.29 1139.47 65.29 1186.87 181.87 1167.54 235.02 1194.96 235.02 1261.33 65.29 1231.73 65.29"/><path class="cls-2" d="M195.13,135a31.73,31.73,0,0,0-35.65-15.1,60.68,60.68,0,0,0,.05-18.35A60.44,60.44,0,0,0,121.7,54.18a33.18,33.18,0,0,1-3.24,2.8,31.67,31.67,0,0,1-37.79.17,30.19,30.19,0,0,1-3.28-2.79A31.66,31.66,0,1,1,121.7,9.14a31.84,31.84,0,0,1,5.2,6.74A98.6,98.6,0,0,1,195.13,135Z"/><circle class="cls-1" cx="99.79" cy="110.51" r="31.66"/><path class="cls-3" d="M63.32,150.57c0,1.07-.06,2.12-.16,3.17a30.39,30.39,0,0,1-.73,4.3,31.66,31.66,0,0,1-30.1,24.18h-.67A31.67,31.67,0,0,1,4.34,134.55,98.28,98.28,0,0,1,71.85,16.15a31.64,31.64,0,0,0,5.54,38.21A60.33,60.33,0,0,0,40.1,120a31.3,31.3,0,0,1,4.14,1.47A31.65,31.65,0,0,1,63.32,150.57Z"/><path class="cls-4" d="M199.2,150.57a31.64,31.64,0,0,1-31.66,31.66h-.36a98.58,98.58,0,0,1-126,7.37,97.45,97.45,0,0,1-8.83-7.38A31.66,31.66,0,0,0,62.43,158c.44.35.89.69,1.34,1a60.55,60.55,0,0,0,73-.82,31.75,31.75,0,0,1-.75-4.18,30.93,30.93,0,0,1-.19-3.5,31.67,31.67,0,0,1,19.59-29.28,30.46,30.46,0,0,1,4-1.35A31.73,31.73,0,0,1,195.13,135a31.7,31.7,0,0,1,4.07,15.53Z"/></g></g></svg>