<svg width="16" height="16" viewBox="0 0 16 16" fill="none" xmlns="http://www.w3.org/2000/svg">
<path d="M14 5.16663H2C1.72667 5.16663 1.5 4.93996 1.5 4.66663C1.5 4.39329 1.72667 4.16663 2 4.16663H14C14.2733 4.16663 14.5 4.39329 14.5 4.66663C14.5 4.93996 14.2733 5.16663 14 5.16663Z" fill="#00092E"/>
<path d="M12 8.5H4C3.72667 8.5 3.5 8.27333 3.5 8C3.5 7.72667 3.72667 7.5 4 7.5H12C12.2733 7.5 12.5 7.72667 12.5 8C12.5 8.27333 12.2733 8.5 12 8.5Z" fill="#00092E"/>
<path d="M9.33332 11.8334H6.66666C6.39332 11.8334 6.16666 11.6067 6.16666 11.3334C6.16666 11.06 6.39332 10.8334 6.66666 10.8334H9.33332C9.60666 10.8334 9.83332 11.06 9.83332 11.3334C9.83332 11.6067 9.60666 11.8334 9.33332 11.8334Z" fill="#00092E"/>
</svg>
