<svg xmlns="http://www.w3.org/2000/svg" version="1.1" xmlns:xlink="http://www.w3.org/1999/xlink" xmlns:svgjs="http://svgjs.com/svgjs" width="199.2" height="208.9"><svg xmlns="http://www.w3.org/2000/svg" viewBox="0 0 199.2 208.9"><defs><style>.cls-1{fill:#f2a30f;}.cls-2{fill:#0e0d40;}.cls-3{fill:#f20574;}.cls-4{fill:#514bf2;}</style></defs><g id="SvgjsG1001" data-name="Calque 2"><g id="SvgjsG1000" data-name="Calque 1"><path class="cls-1" d="M195.13,135a31.73,31.73,0,0,0-35.65-15.1,60.68,60.68,0,0,0,.05-18.35A60.44,60.44,0,0,0,121.7,54.18a33.18,33.18,0,0,1-3.24,2.8,31.67,31.67,0,0,1-37.79.17,30.19,30.19,0,0,1-3.28-2.79A31.66,31.66,0,1,1,121.7,9.14a31.84,31.84,0,0,1,5.2,6.74A98.6,98.6,0,0,1,195.13,135Z"></path><circle class="cls-2" cx="99.79" cy="110.51" r="31.66"></circle><path class="cls-3" d="M63.32,150.57c0,1.07-.06,2.12-.16,3.17a30.39,30.39,0,0,1-.73,4.3,31.66,31.66,0,0,1-30.1,24.18h-.67A31.67,31.67,0,0,1,4.34,134.55,98.28,98.28,0,0,1,71.85,16.15a31.64,31.64,0,0,0,5.54,38.21A60.33,60.33,0,0,0,40.1,120a31.3,31.3,0,0,1,4.14,1.47A31.65,31.65,0,0,1,63.32,150.57Z"></path><path class="cls-4" d="M199.2,150.57a31.64,31.64,0,0,1-31.66,31.66h-.36a98.58,98.58,0,0,1-126,7.37,97.45,97.45,0,0,1-8.83-7.38A31.66,31.66,0,0,0,62.43,158c.44.35.89.69,1.34,1a60.55,60.55,0,0,0,73-.82,31.75,31.75,0,0,1-.75-4.18,30.93,30.93,0,0,1-.19-3.5,31.67,31.67,0,0,1,19.59-29.28,30.46,30.46,0,0,1,4-1.35A31.73,31.73,0,0,1,195.13,135a31.7,31.7,0,0,1,4.07,15.53Z"></path></g></g></svg><style>@media (prefers-color-scheme: light) { :root { filter: none; } }
</style></svg>